<svg width="40" height="40" viewBox="0 0 40 40" fill="none" xmlns="http://www.w3.org/2000/svg">
<g id="shopping-cart">
<rect id="Mask" width="40" height="40" fill="#008421"/>
<path id="Shape" fill-rule="evenodd" clip-rule="evenodd" d="M27.6097 14.5442C27.4588 14.3711 27.2415 14.2716 27.0124 14.2716H16.0937L15.9396 13.3519C15.8764 12.971 15.5469 12.6913 15.1606 12.6913H13.3828C12.9458 12.6913 12.5927 13.0445 12.5927 13.4815C12.5927 13.9184 12.9458 14.2716 13.3828 14.2716H14.4913L15.9609 23.0925L15.9965 23.1905L16.0392 23.3098L16.134 23.4512L16.209 23.5397L16.3615 23.6425L16.45 23.6938C16.5417 23.731 16.6381 23.7531 16.74 23.7531H25.4322C25.8691 23.7531 26.2223 23.3999 26.2223 22.9629C26.2223 22.526 25.8691 22.1728 25.4322 22.1728H17.41L17.2789 21.3827H26.2223C26.6158 21.3827 26.9492 21.0935 27.0045 20.7048L27.7946 15.1739C27.827 14.9464 27.7591 14.7164 27.6097 14.5442ZM26.1014 15.8518L25.8762 17.4321H23.0618V15.8518H26.1014ZM22.2717 17.4321V15.8518H19.9013V17.4321H22.2717ZM22.2717 18.2222V19.8025H19.9013V18.2222H22.2717ZM19.1112 17.4321V15.8518H16.3568L16.6239 17.4558L16.7408 17.4321H19.1112ZM16.7519 18.2222H19.1112V19.8025H17.015L16.7519 18.2222ZM23.0618 18.2222V19.8025H25.5372L25.7624 18.2222H23.0618Z" fill="white"/>
<circle id="Oval" cx="17.6296" cy="26.5185" r="1.18519" fill="white"/>
<circle id="Oval_2" cx="24.7407" cy="26.5185" r="1.18519" fill="white"/>
</g>
</svg>
